<svg xmlns="http://www.w3.org/2000/svg" viewBox="0 0 256 256">
  <defs />
  <defs>
    <style>.cls-2{fill:#373f30}.cls-3{fill:#fcfcfc}.cls-6{fill:#f7c5b9}</style>
  </defs>
  <path fill="#fdfdfd" d="M169 242c-67 31-155-22-164-95C-12 60 80-19 164 11c55 16 96 79 83 136-12-5-24 5-32 12-24 24 16 41 0 54-8 5-10-12-15-16-6-5-6-11-6-18-3-9 17-12 19-28 0-8 3-10 11-8 2 0 4-1 4-4 0-5-8-3-12-3-5-2-4-12-8-16-2-2-1-3 1-4 3-2 11-3 8-9-1-2-3-2-5 0-11 9-14-1-21-8-4-7 7-16 6-24 2-23-31-11-41-2a5 5 0 01-5 1 52 52 0 00-22 0c-11-3-20-14-34-12-20-1-11 22-5 32 2 6-8 10-10 16-5 6-13-9-17-3-3 5 5 7 8 9 5 4-5 12-4 17-2 6-15-1-15 6 0 8 12 0 14 6 1 13 7 21 18 27 2 2 3 3 2 5-4 19 3 37 13 52 6 18 31 16 33-3 2-4 11 1 15-2 8 5 2 16 22 18z" />
  <path d="M169 242c-20-2-14-13-22-18-4 3-13-3-15 2-19 48-55-25-46-49 1-2 0-4-2-5-26-13-10-33-28-29-11-4 1-9 7-7 6-1 5-12 9-16 3-4-5-5-8-8-5-2 0-9 4-6 4 1 8 8 12 4 2-6 12-10 10-16-23-44 14-34 39-20a52 52 0 0122 0c12-3 21-14 35-12 25 2 1 27 5 37 5 3 8 14 14 12 12-11 20-1 4 5-5 4 5 12 4 17 2 5 8 2 11 3 5 0 5 7 0 7-3 0-6-2-9 0-4 29-23 24-21 36-1 12 9 19 12 29 6 12 19 0 12-8-24-23 0-59 29-53 13 12 0 21-12 27-7 5 4 11 6 16 12 22-8 51-32 48-8-1-15-5-20-11-6-10-7 15-20 15zm-72-64c-10-4-2 31 1 35 5 11 19 35 27 13 0-4-1-12 6-10 7 5 25-5 26 4-2 16 17 20 21 3 5-6 17-48 5-45-4 1-10 4-12 0 3-10 30-7 35-28 6-13-7-4-8-12 4-8 13 2 4-14-2-6-7 4-10-1-1-12 12 0-8-21-10-8 18-32 1-33-10 0-19 4-26 11-9 5-21-3-31 2a6 6 0 01-7-2c-5-6-34-20-31-5 7 21 15 20-4 38-2 2-2 3 1 5 5 1 1 9-3 6s-6-1-7 2c-8 16 3 4 5 12 0 5-4 4-7 4-8 4 4 19 9 22a57 57 0 0020 9c12 5 0 9-7 5zm97 22c-13 21 15 40 32 26 36-28-28-47 16-64 16-25-51 4-19 34 13 22-17 40-29 4z" class="cls-2" />
  <path d="M109 178c-5-11-33-7-36-32-2-7 9 0 9-8 1-6-9 0-8-5 7-20 6-5 15-10a3 3 0 00-2-5c-7-4 8-13 10-18 7-7-19-31-1-31 9 0 18 4 25 11 9 5 21-3 31 2 3 1 5 0 7-2 20-16 43-18 23 13-6 10 17 17 12 24-6 2-1 10 3 6 3-2 4-1 5 1 9 17 0 6-4 14 1 8 14-1 8 12-4 14-18 20-31 23-17 12-45 6-66 5zm54-30c2-6-4-14-7-6 2 7-5 7-4 13 1 8 12 6 18 6 13-4 3-17-7-13zm-40 0c4-11-9-13-6 0-5-1-13-1-13 6-1 10 23 10 24 1 0-3 0-6-5-7z" class="cls-3" />
  <path d="M183 178c17-3-11 86-26 47 0-3 1-11-5-9-8 5-25-5-27 4 3 11-12 21-18 9l-9-16c-3-4-11-40-1-35 18 21 68 21 86 0z" class="cls-3" />
  <path fill="#f9f7f3" d="M194 200c12 36 42 18 30-4-33-30 34-59 18-34-44 17 21 36-16 64-17 14-45-5-32-26z" />
  <path fill="#e3e3df" d="M183 178c-20 22-62 20-84 3-4-4 1-2 4-1 11-3 24 0 37 0l31-2c2 4 8 1 12 0z" />
  <path d="M123 148c8 1 6 13-1 13s-18 2-18-7c2-11 14-3 19-6zM163 148c10-3 20 9 7 13-6 0-17 2-18-6-1-11 7-3 11-7z" class="cls-6" />
  <path d="M163 148c-6 7-10-8-4-9 5-1 4 5 4 9zM123 148c-5 4-7-2-6-6 3-9 10 1 6 6z" class="cls-2" />
</svg>